#!OML:ASF X:\für Bonn\!DataBase\2005_08_11_Bastian_Final\c3d\Bastian.ASF
:FULLY-SPECIFIED
:DEGREES
476
root 0.564024 1.25643 20.364 -643.573 -1.73632 -179.594
lowerback 12.2338 -0.540726 3.14993
upperback 12.6941 -2.17395 1.68949
thorax 6.62561 -1.77386 0.0627263
lowerneck 3.60592 -3.2229 -9.85783
upperneck 13.4405 -5.68656 4.27331
head 3.8266 -3.51836 2.75356
rclavicle -1.19271e-014 1.11319e-014
rhumerus -44.9563 49.4298 -96.5158
rradius 23.5403
rwrist -1.97354
rhand -18.4867 -4.04466
rfingers 7.12502
rthumb 7.80062 -33.8808
lclavicle -1.19271e-014 1.11319e-014
lhumerus -33.4269 -34.9289 100
lradius 15.2806
lwrist 9.91288
lhand -17.3914 -1.85526
lfingers 7.12502
lthumb 8.85765 27.9388
rfemur 4.66213 8.44743 23.6671
rtibia 31.1863
rfoot -12.3551 -21.7496
rtoes 1.13794
lfemur 6.99961 2.41776 -17.1894
ltibia 23.6308
lfoot 6.95577 7.51932
ltoes -11.2828
477
root 0.562188 1.25681 20.3636 -643.522 -1.73883 -179.545
lowerback 12.178 -0.553073 3.07629
upperback 12.5454 -2.16116 1.70499
thorax 6.48987 -1.75758 0.123103
lowerneck 3.23654 -3.29134 -9.76339
upperneck 13.3429 -5.70815 4.31826
head 3.85722 -3.4998 2.74424
rclavicle -1.47101e-014 4.75095e-014
rhumerus -45.3674 49.4915 -97.2017
rradius 23.4877
rwrist -2.09788
rhand -18.2449 -3.99906
rfingers 7.12502
rthumb 8.03394 -33.8264
lclavicle -1.47101e-014 4.75095e-014
lhumerus -33.6704 -35.2183 100.607
lradius 15.1692
lwrist 10.2725
lhand -17.2049 -1.90356
lfingers 7.12502
lthumb 9.03764 27.8828
rfemur 4.6435 8.42748 23.6063
rtibia 31.1876
rfoot -12.6497 -22.0904
rtoes 1.34083
lfemur 7.00452 2.41009 -17.1984
ltibia 23.539
lfoot 6.757 7.60079
ltoes -10.9869
478
root 0.560257 1.25696 20.3635 -643.463 -1.73982 -179.487
lowerback 12.1292 -0.569509 3.03505
upperback 12.3816 -2.14741 1.7051
thorax 6.33263 -1.73616 0.149865
lowerneck 2.92624 -3.36177 -9.65414
upperneck 13.1968 -5.73768 4.35629
head 3.86359 -3.48468 2.73181
rclavicle -1.19271e-015 7.7526e-015
rhumerus -45.7825 49.4644 -97.8649
rradius 23.4395
rwrist -2.09869
rhand -17.9754 -3.85025
rfingers 7.12502
rthumb 8.29409 -33.6674
lclavicle -1.19271e-015 7.7526e-015
lhumerus -34.0995 -35.851 101.413
lradius 15.1219
lwrist 10.913
lhand -17.0418 -1.91903
lfingers 7.12502
lthumb 9.19504 27.8605
rfemur 4.60646 8.38721 23.5417
rtibia 31.1875
rfoot -12.8431 -22.4282
rtoes 1.25257
lfemur 6.99895 2.41234 -17.21
ltibia 23.4521
lfoot 6.58127 7.65298
ltoes -10.6697
479
root 0.558977 1.2576 20.3622 -643.413 -1.71486 -179.45
lowerback 12.0748 -0.585565 2.98367
upperback 12.2515 -2.1452 1.73763
thorax 6.21828 -1.72703 0.215512
lowerneck 2.54947 -3.4212 -9.63119
upperneck 13.0231 -5.74407 4.43911
head 3.87468 -3.45606 2.74669
rclavicle -6.36111e-015 1.98785e-015
rhumerus -46.1664 49.5317 -98.4986
rradius 23.4096
rwrist -2.04248
rhand -17.695 -3.71673
rfingers 7.12502
rthumb 8.56466 -33.523
lclavicle -6.36111e-015 1.98785e-015
lhumerus -34.5352 -36.5461 102.256
lradius 15.1637
lwrist 11.7344
lhand -16.8402 -1.96593
lfingers 7.12502
lthumb 9.38952 27.8049
rfemur 4.58574 8.40471 23.5274
rtibia 31.1901
rfoot -13.0974 -22.7809
rtoes 1.26877
lfemur 7.01146 2.41094 -17.1822
ltibia 23.3598
lfoot 6.37661 7.74122
ltoes -9.84692
480
root 0.557462 1.25761 20.3618 -643.357 -1.72186 -179.416
lowerback 12.0267 -0.591765 2.94003
upperback 12.1075 -2.1229 1.7362
thorax 6.08379 -1.70346 0.240497
lowerneck 2.28608 -3.4881 -9.55548
upperneck 12.7552 -5.76818 4.50082
head 3.83791 -3.43452 2.74918
rclavicle -6.36111e-015 3.18055e-015
rhumerus -46.5234 49.465 -99.1045
rradius 23.3689
rwrist -1.8782
rhand -17.4377 -3.47615
rfingers 7.12502
rthumb 8.81296 -33.2721
lclavicle -6.36111e-015 3.18055e-015
lhumerus -35.0344 -37.3069 103.105
lradius 15.2314
lwrist 12.5385
lhand -16.6655 -1.98968
lfingers 7.12502
lthumb 9.55807 27.7735
rfemur 4.54755 8.34337 23.4488
rtibia 31.1921
rfoot -13.2782 -23.0161
rtoes 1.22357
lfemur 7.01276 2.40985 -17.1939
ltibia 23.2743
lfoot 6.16363 7.84839
ltoes -9.10047
481
root 0.555452 1.25799 20.361 -643.317 -1.70147 -179.377
lowerback 11.9953 -0.606461 2.93211
upperback 11.9764 -2.11408 1.74368
thorax 5.95484 -1.68684 0.255781
lowerneck 2.00644 -3.55787 -9.49464
upperneck 12.489 -5.79472 4.55736
head 3.80499 -3.41533 2.75193
rclavicle 1.35174e-014 2.33572e-014
rhumerus -47.0374 49.5988 -99.881
rradius 23.3878
rwrist -1.82059
rhand -17.1432 -3.2447
rfingers 7.12502
rthumb 9.09719 -33.0285
lclavicle 1.35174e-014 2.33572e-014
lhumerus -35.5162 -37.9315 103.863
lradius 15.3898
lwrist 13.1923
lhand -16.4635 -2.00604
lfingers 7.12502
lthumb 9.753 27.7481
rfemur 4.52534 8.22236 23.3775
rtibia 31.1903
rfoot -13.4529 -23.1876
rtoes 1.13568
lfemur 7.02877 2.40957 -17.1734
ltibia 23.1975
lfoot 5.95529 7.94734
ltoes -8.25385
